STARTFONT 2.1
FONT -Bitstream-Terminal-Bold-R-Double Wide--25-180-100-100-C-300-DEC-DECtech
SIZE 18 100 100
FONTBOUNDINGBOX 30 25 0 -5

STARTPROPERTIES 28
CHARSET_REGISTRY "DEC"
CHARSET_ENCODING "DECtech"
CAP_HEIGHT 15
X_HEIGHT 12
AVERAGE_WIDTH 300
AVG_CAPITAL_WIDTH 300
AVG_LOWERCASE_WIDTH 300
FIGURE_WIDTH 30
SPACING "C"
FONTNAME_REGISTRY ""
FAMILY_NAME "Terminal"
FOUNDRY "Bitstream"
WEIGHT_NAME "Bold"
SETWIDTH_NAME "Double Wide"
SLANT "R"
ADD_STYLE_NAME ""
PIXEL_SIZE 25
POINT_SIZE 180
RESOLUTION_X 100
RESOLUTION_Y 100
CHARSET_COLLECTIONS "DEC-DECtech"
FULL_NAME "Terminal Bold Double Wide"
COPYRIGHT "Copyright (c) 1988 Bitstream, Inc., Copyright 1991 Digital Equipment Corporation.  All Rights Reserved."
WEIGHT 10
QUAD_WIDTH 33
DEFAULT_CHAR 159
FONT_DESCENT 5
FONT_ASCENT 20
ENDPROPERTIES

CHARS 181

STARTCHAR space
ENCODING 32
SWIDTH 1131 0
DWIDTH 36 0
BBX 1 1 0 0
BITMAP
00
ENDCHAR

STARTCHAR exclam
ENCODING 33
SWIDTH 1131 0
DWIDTH 30 0
BBX 14 15 8 0
BITMAP
1FE0
1FE0
1FE0
1FE0
1FE0
1FE0
1FE0
1FE0
1FE0
0000
0000
1FE0
FFFC
FFFC
1FE0
ENDCHAR

STARTCHAR quotedbl
ENCODING 34
SWIDTH 1131 0
DWIDTH 30 0
BBX 16 8 7 10
BITMAP
F81F
F81F
F81F
F81F
F81F
F81F
F81F
F81F
ENDCHAR

STARTCHAR numbersign
ENCODING 35
SWIDTH 1131 0
DWIDTH 30 0
BBX 28 19 1 -4
BITMAP
0FF0FF00
0FF0FF00
0FF0FF00
0FF0FF00
0FF0FF00
FFFFFFF0
FFFFFFF0
FFFFFFF0
0FF0FF00
0FF0FF00
0FF0FF00
FFFFFFF0
FFFFFFF0
FFFFFFF0
0FF0FF00
0FF0FF00
0FF0FF00
0FF0FF00
0FF0FF00
ENDCHAR

STARTCHAR dollar
ENCODING 36
SWIDTH 1131 0
DWIDTH 30 0
BBX 26 22 2 -4
BITMAP
000F8000
000F8000
000F8000
0FFF87C0
3FFFFFC0
3FFFFFC0
FF807FC0
FF800FC0
3FFC0000
3FFF8000
07FFFC00
003FFF00
FC007FC0
FC007FC0
FF807FC0
FFFFFFC0
FFFFFF00
FC7FFC00
007E0000
007E0000
007E0000
007E0000
ENDCHAR

STARTCHAR percent
ENCODING 37
SWIDTH 1131 0
DWIDTH 30 0
BBX 28 17 1 -1
BITMAP
7FFE0000
FFFF0000
F81F0000
F81F0000
F81F0180
FFFF1F80
7FFE3C00
0001E000
001F8000
00780000
07C1FFE0
1E0FFFF0
180F81F0
000F81F0
000F81F0
000FFFF0
0007FFE0
ENDCHAR

STARTCHAR ampersand
ENCODING 38
SWIDTH 1131 0
DWIDTH 30 0
BBX 26 15 2 0
BITMAP
00FF3E00
07FFFE00
0FFFFE00
0FE07E00
0FF00000
07FC0FC0
03FE0FC0
0FFF0FC0
3F3FBE00
FF0FFE00
FF03FC00
FF81FE00
3FFFFFC0
3FFFFFC0
0FFF8FC0
ENDCHAR

STARTCHAR quoteright
ENCODING 39
SWIDTH 1131 0
DWIDTH 30 0
BBX 16 7 6 11
BITMAP
01FF
03FC
07F8
0FE0
3FC0
7E00
FC00
ENDCHAR

STARTCHAR parenleft
ENCODING 40
SWIDTH 1131 0
DWIDTH 30 0
BBX 16 21 7 -4
BITMAP
001F
007F
03F8
07E0
0FE0
1FC0
7FC0
7F80
FF80
FF80
FF80
FF80
FF80
FF80
7FC0
7FC0
1FE0
0FE0
07F8
01FF
001F
ENDCHAR

STARTCHAR parenright
ENCODING 41
SWIDTH 1131 0
DWIDTH 30 0
BBX 16 21 7 -4
BITMAP
F800
FF80
1FE0
07F0
07F8
03FE
03FE
01FF
01FF
01FF
01FF
01FF
01FF
01FE
03FE
03F8
07F0
07E0
1FC0
FE00
F800
ENDCHAR

STARTCHAR asterisk
ENCODING 42
SWIDTH 1131 0
DWIDTH 30 0
BBX 26 14 2 0
BITMAP
003F0000
183F0600
3C3F0F00
FF3F3FC0
3FFFFF00
1FFFFE00
0FFFFC00
07FFF800
07FFF800
0FF3FC00
1FE1FE00
0FC0FC00
07807800
03003000
ENDCHAR

STARTCHAR plus
ENCODING 43
SWIDTH 1131 0
DWIDTH 30 0
BBX 26 13 2 0
BITMAP
007F8000
007F8000
007F8000
007F8000
007F8000
FFFFFFC0
FFFFFFC0
FFFFFFC0
007F8000
007F8000
007F8000
007F8000
007F8000
ENDCHAR

STARTCHAR comma
ENCODING 44
SWIDTH 1131 0
DWIDTH 30 0
BBX 15 8 7 -4
BITMAP
0FFE
0FFE
0FF8
1FF0
1FE0
7FC0
7F80
FE00
ENDCHAR

STARTCHAR minus
ENCODING 45
SWIDTH 1131 0
DWIDTH 30 0
BBX 26 3 2 5
BITMAP
FFFFFFC0
FFFFFFC0
FFFFFFC0
ENDCHAR

STARTCHAR period
ENCODING 46
SWIDTH 1131 0
DWIDTH 30 0
BBX 10 5 10 0
BITMAP
3F00
FFC0
FFC0
FFC0
3F00
ENDCHAR

STARTCHAR slash
ENCODING 47
SWIDTH 1131 0
DWIDTH 30 0
BBX 29 20 1 -3
BITMAP
000001F8
000003F0
000007E0
00001F80
00003F00
00007E00
0000FC00
0001F800
0007E000
000FC000
001F8000
003F0000
007E0000
01F80000
03F00000
07E00000
0FC00000
1F800000
7E000000
FC000000
ENDCHAR

STARTCHAR zero
ENCODING 48
SWIDTH 1131 0
DWIDTH 30 0
BBX 26 15 2 0
BITMAP
03FFF000
0FFFFC00
3FFFFF00
3FC0FF00
FF807FC0
FF807FC0
FF807FC0
FF807FC0
FF807FC0
FF807FC0
FF807FC0
3FC0FF00
1FFFFE00
0FFFFC00
00FFC000
ENDCHAR

STARTCHAR one
ENCODING 49
SWIDTH 1131 0
DWIDTH 30 0
BBX 24 15 4 0
BITMAP
01FF00
1FFF00
FFFF00
FFFF00
E0FF00
00FF00
00FF00
00FF00
00FF00
00FF00
00FF00
00FF00
7FFFFF
7FFFFF
7FFFFF
ENDCHAR

STARTCHAR two
ENCODING 50
SWIDTH 1131 0
DWIDTH 30 0
BBX 26 15 2 0
BITMAP
07FFFC00
FFFFFF00
FFFFFF00
FC007FC0
FC007FC0
0000FF00
0001FF00
000FFC00
003FF000
00FF8000
07FE0FC0
1FE00FC0
FFFFFFC0
FFFFFFC0
FFFFFFC0
ENDCHAR

STARTCHAR three
ENCODING 51
SWIDTH 1131 0
DWIDTH 30 0
BBX 26 15 2 0
BITMAP
0FFFFC00
FFFFFF00
FFFFFFC0
FC007FC0
FC007F00
00007F00
007FFC00
007FFF00
007FFFC0
00007FC0
FC007FC0
FC007FC0
FFFFFFC0
FFFFFF00
0FFFFC00
ENDCHAR

STARTCHAR four
ENCODING 52
SWIDTH 1131 0
DWIDTH 30 0
BBX 27 15 1 0
BITMAP
003FFE00
007FFE00
01FFFE00
03F1FE00
07E1FE00
0FC1FE00
1F81FE00
7E01FE00
FFFFFFE0
FFFFFFE0
FFFFFFE0
0001FE00
007FFFE0
007FFFE0
007FFFE0
ENDCHAR

STARTCHAR five
ENCODING 53
SWIDTH 1131 0
DWIDTH 30 0
BBX 26 15 2 0
BITMAP
FFFFFFC0
FFFFFFC0
FFFFFFC0
FF000000
FF000000
FFFFFC00
FFFFFF00
FFFFFFC0
F0007FC0
00007FC0
00007FC0
FC007FC0
FFFFFFC0
FFFFFF00
0FFFFC00
ENDCHAR

STARTCHAR six
ENCODING 54
SWIDTH 1131 0
DWIDTH 30 0
BBX 26 15 2 0
BITMAP
00FFFE00
0FFFFE00
1FFFFE00
3FC00000
3F800000
FF8FFC00
FFBFFF00
FFFFFFC0
FFC07FC0
FF803FC0
FF803FC0
3FC07FC0
3FFFFFC0
1FFFFF00
03FFFC00
ENDCHAR

STARTCHAR seven
ENCODING 55
SWIDTH 1131 0
DWIDTH 30 0
BBX 26 15 2 0
BITMAP
FFFFFFC0
FFFFFFC0
FFFFFFC0
FF007FC0
FF00FFC0
0001FF00
0003FE00
000FFC00
001FF800
003FF000
007FC000
00FF8000
03FF0000
07FE0000
07FE0000
ENDCHAR

STARTCHAR eight
ENCODING 56
SWIDTH 1131 0
DWIDTH 30 0
BBX 26 15 2 0
BITMAP
0FFFFC00
1FFFFE00
3FFFFF00
3F807F00
3F807F00
1F807E00
0FFFFC00
3FFFFF00
FF807FC0
FF807FC0
FF807FC0
FF807FC0
3FFFFF00
3FFFFF00
0FFFFC00
ENDCHAR

STARTCHAR nine
ENCODING 57
SWIDTH 1131 0
DWIDTH 30 0
BBX 26 15 2 0
BITMAP
0FFFFC00
3FFFFF00
FFFFFF00
FF80FFC0
FF007FC0
FF007FC0
FF80FFC0
3FFFFFC0
1FFFFFC0
07FE7FC0
00007F00
0000FF00
1FFFFE00
1FFFFC00
1FFFC000
ENDCHAR

STARTCHAR colon
ENCODING 58
SWIDTH 1131 0
DWIDTH 30 0
BBX 10 12 10 0
BITMAP
3F00
FFC0
FFC0
FFC0
3F00
0000
0000
3F00
FFC0
FFC0
FFC0
3F00
ENDCHAR

STARTCHAR semicolon
ENCODING 59
SWIDTH 1131 0
DWIDTH 30 0
BBX 16 16 7 -4
BITMAP
03F8
0FFF
0FFF
0FFF
03F8
0000
0000
0000
0FFE
0FFE
0FF8
1FF0
1FE0
7FC0
7F80
FE00
ENDCHAR

STARTCHAR less
ENCODING 60
SWIDTH 1131 0
DWIDTH 30 0
BBX 26 13 2 1
BITMAP
00000FC0
00007FC0
0003FFC0
007FFC00
0FFFC000
FFFC0000
FFE00000
FFFC0000
0FFFC000
007FFC00
0003FFC0
00007FC0
00000FC0
ENDCHAR

STARTCHAR equal
ENCODING 61
SWIDTH 1131 0
DWIDTH 30 0
BBX 26 8 2 3
BITMAP
FFFFFFC0
FFFFFFC0
FFFFFFC0
00000000
00000000
FFFFFFC0
FFFFFFC0
FFFFFFC0
ENDCHAR

STARTCHAR greater
ENCODING 62
SWIDTH 1131 0
DWIDTH 30 0
BBX 26 13 2 1
BITMAP
FC000000
FF800000
FFF00000
0FFF8000
00FFFC00
000FFFC0
0001FFC0
000FFFC0
00FFFC00
0FFF8000
FFF00000
FF800000
FC000000
ENDCHAR

STARTCHAR question
ENCODING 63
SWIDTH 1131 0
DWIDTH 30 0
BBX 22 15 4 0
BITMAP
1FFFE0
7FFFF8
FF87FC
FF03FC
0003FC
00FFF0
03FFC0
03FC00
03FC00
000000
000000
03FC00
1FFF00
1FFF00
03FC00
ENDCHAR

STARTCHAR at
ENCODING 64
SWIDTH 1131 0
DWIDTH 30 0
BBX 28 20 1 -3
BITMAP
03FFFC00
07FFFE00
1FFFFF00
7F803F80
7E001F80
FE001F80
FC1FFF80
FC3FFF80
FC7FFF80
FC7E1F80
FC7E1F80
FC7FFF80
FC3FE7F0
FC1FE3F0
FE000000
FE000000
7FC00000
1FFFFF00
07FFFF00
03FFFF00
ENDCHAR

STARTCHAR A
ENCODING 65
SWIDTH 1131 0
DWIDTH 30 0
BBX 28 15 1 0
BITMAP
003FE000
007FF800
007FF800
01FFFC00
01F9FC00
03F1FC00
03F0FE00
07E0FE00
07FFFF00
0FFFFF00
0F807F80
1F803F80
FFE0FFF0
FFE0FFF0
FFE0FFF0
ENDCHAR

STARTCHAR B
ENCODING 66
SWIDTH 1131 0
DWIDTH 30 0
BBX 28 15 1 0
BITMAP
FFFFFE00
FFFFFF80
FFFFFF80
1FE07F80
1FE07F80
1FE07E00
1FFFFE00
1FFFFF80
1FE01FF0
1FE01FF0
1FE01FF0
1FE01FF0
FFFFFFE0
FFFFFFE0
FFFFFF00
ENDCHAR

STARTCHAR C
ENCODING 67
SWIDTH 1131 0
DWIDTH 30 0
BBX 28 15 1 0
BITMAP
01FFE1F0
0FFFFFF0
1FFFFFF0
7FC01FF0
FF8003F0
FF8003F0
FF800000
FF800000
FF800000
FF800000
FFC00000
7FE003F0
1FFFFFF0
0FFFFFF0
01FFFE00
ENDCHAR

STARTCHAR D
ENCODING 68
SWIDTH 1131 0
DWIDTH 30 0
BBX 28 15 1 0
BITMAP
FFFFFE00
FFFFFF80
FFFFFF80
1FE03FE0
1FE01FF0
1FE01FF0
1FE01FF0
1FE01FF0
1FE01FF0
1FE01FF0
1FE01FF0
1FE03FE0
FFFFFF80
FFFFFF80
FFFFFE00
ENDCHAR

STARTCHAR E
ENCODING 69
SWIDTH 1131 0
DWIDTH 30 0
BBX 26 15 2 0
BITMAP
FFFFFFC0
FFFFFFC0
FFFFFFC0
1FE007C0
1FE007C0
1FE3C000
1FFFC000
1FFFC000
1FE3C000
1FE007C0
1FE007C0
1FE007C0
FFFFFFC0
FFFFFFC0
FFFFFFC0
ENDCHAR

STARTCHAR F
ENCODING 70
SWIDTH 1131 0
DWIDTH 30 0
BBX 26 15 2 0
BITMAP
FFFFFFC0
FFFFFFC0
FFFFFFC0
1FE007C0
1FE007C0
1FE00000
1FE1F000
1FFFF000
1FFFF000
1FE1F000
1FE00000
1FE00000
FFFE0000
FFFE0000
FFFE0000
ENDCHAR

STARTCHAR G
ENCODING 71
SWIDTH 1131 0
DWIDTH 30 0
BBX 28 15 1 0
BITMAP
01FFE1F0
0FFFFFF0
1FFFFFF0
7FC01FF0
FF8003F0
FF800000
FF800000
FF81FFF0
FF81FFF0
FF801FF0
FF801FF0
7FC01FF0
1FFFFFF0
0FFFFFF0
01FFFF00
ENDCHAR

STARTCHAR H
ENCODING 72
SWIDTH 1131 0
DWIDTH 30 0
BBX 28 15 1 0
BITMAP
FFE07FF0
FFE07FF0
FFE07FF0
1FE07F80
1FE07F80
1FE07F80
1FFFFF80
1FFFFF80
1FE07F80
1FE07F80
1FE07F80
1FE07F80
FFE07FF0
FFE07FF0
FFE07FF0
ENDCHAR

STARTCHAR I
ENCODING 73
SWIDTH 1131 0
DWIDTH 30 0
BBX 20 15 5 0
BITMAP
FFFFF0
FFFFF0
FFFFF0
03FC00
03FC00
03FC00
03FC00
03FC00
03FC00
03FC00
03FC00
03FC00
FFFFF0
FFFFF0
FFFFF0
ENDCHAR

STARTCHAR J
ENCODING 74
SWIDTH 1131 0
DWIDTH 30 0
BBX 28 15 1 0
BITMAP
007FFFF0
007FFFF0
007FFFF0
0001FE00
0001FE00
0001FE00
0001FE00
0001FE00
FC01FE00
FC01FE00
FC01FE00
FE01FE00
FFFFFC00
FFFFFC00
1FFFE000
ENDCHAR

STARTCHAR K
ENCODING 75
SWIDTH 1131 0
DWIDTH 30 0
BBX 28 15 1 0
BITMAP
FFE07FE0
FFE07FE0
FFE07FE0
1FE0FC00
1FE1E000
1FE7C000
1FEF8000
1FFFC000
1FFFE000
1FE7F800
1FE1FC00
1FE0FE00
FFE07FF0
FFE07FF0
FFE07FF0
ENDCHAR

STARTCHAR L
ENCODING 76
SWIDTH 1131 0
DWIDTH 30 0
BBX 26 15 2 0
BITMAP
FFFF0000
FFFF0000
FFFF0000
0FF00000
0FF00000
0FF00000
0FF00000
0FF00000
0FF00FC0
0FF00FC0
0FF00FC0
0FF00FC0
FFFFFFC0
FFFFFFC0
FFFFFFC0
ENDCHAR

STARTCHAR M
ENCODING 77
SWIDTH 1131 0
DWIDTH 30 0
BBX 28 15 1 0
BITMAP
FF8007F0
FFC01FF0
FFC01FF0
1FE03F80
1FF07F80
1FF8FF80
1FFFFF80
1FBFDF80
1F9F9F80
1FC73F80
1FC73F80
1FC03F80
FFC03FF0
FFC03FF0
FFC03FF0
ENDCHAR

STARTCHAR N
ENCODING 78
SWIDTH 1131 0
DWIDTH 30 0
BBX 28 15 1 0
BITMAP
FFE07FF0
FFE07FF0
FFF07FF0
1FF87F80
1FFE7F80
1FFF7F80
1FEF7F80
1FE7FF80
1FE1FF80
1FE0FF80
1FE0FF80
1FE07F80
FFE07F80
FFE07F80
FFE07F80
ENDCHAR

STARTCHAR O
ENCODING 79
SWIDTH 1131 0
DWIDTH 30 0
BBX 28 15 1 0
BITMAP
01FFF800
0FFFFF00
1FF0FF80
7FC03FE0
7F801FE0
FF801FF0
FE0007F0
FE0007F0
FE0007F0
FF801FF0
7F801FE0
7FC03FE0
1FF0FF80
0FFFFF00
01FFF800
ENDCHAR

STARTCHAR P
ENCODING 80
SWIDTH 1131 0
DWIDTH 30 0
BBX 26 15 2 0
BITMAP
FFFFFE00
FFFFFF00
FFFFFFC0
0FF07FC0
0FF07FC0
0FF07FC0
0FF07FC0
0FFFFF00
0FFFFE00
0FF00000
0FF00000
0FF00000
FFFF0000
FFFF0000
FFFF0000
ENDCHAR

STARTCHAR Q
ENCODING 81
SWIDTH 1131 0
DWIDTH 30 0
BBX 29 19 1 -4
BITMAP
01FFF800
0FFFFF00
1FF0FF80
7FC03FE0
7F801FE0
FF801FF0
FE0007F0
FE0007F0
FE0007F0
FF801FF0
7F801FE0
7FC03FE0
1FF0FF80
0FFFFF00
01FFF800
001E00F8
003FFFF8
01FFFFF8
01F0FF80
ENDCHAR

STARTCHAR R
ENCODING 82
SWIDTH 1131 0
DWIDTH 30 0
BBX 28 15 1 0
BITMAP
FFFFFE00
FFFFFF80
FFFFFF80
1FE07F80
1FE07F80
1FE07F80
1FFFFF00
1FFFF800
1FE7FC00
1FE1FE00
1FE0FE00
1FE0FF00
FFE07FF0
FFE07FF0
FFE03FF0
ENDCHAR

STARTCHAR S
ENCODING 83
SWIDTH 1131 0
DWIDTH 30 0
BBX 22 15 4 0
BITMAP
1FFCFC
7FFFFC
7FFFFC
FF01FC
FF00FC
7FF000
3FFF00
0FFFF0
003FFC
FC03FC
FC03FC
FE03FC
FFFFF8
FFFFF8
FCFFE0
ENDCHAR

STARTCHAR T
ENCODING 84
SWIDTH 1131 0
DWIDTH 30 0
BBX 28 15 1 0
BITMAP
FFFFFFF0
FFFFFFF0
FFFFFFF0
FC3FC3F0
FC3FC3F0
FC3FC3F0
FC3FC3F0
003FC000
003FC000
003FC000
003FC000
003FC000
03FFFC00
03FFFC00
03FFFC00
ENDCHAR

STARTCHAR U
ENCODING 85
SWIDTH 1131 0
DWIDTH 30 0
BBX 28 15 1 0
BITMAP
FFE07FF0
FFE07FF0
FFE07FF0
1FE07F80
1FE07F80
1FE07F80
1FE07F80
1FE07F80
1FE07F80
1FE07F80
1FE07F80
1FE07F80
0FFFFF00
0FFFFF00
03FFFC00
ENDCHAR

STARTCHAR V
ENCODING 86
SWIDTH 1131 0
DWIDTH 30 0
BBX 28 15 1 0
BITMAP
FFC01FF0
FFC01FF0
FFC01FF0
1FE03F80
1FE03F80
0FE07F00
0FF07E00
07F0FE00
07F8FC00
03F9FC00
03FFF800
01FFE000
01FFE000
007FC000
007FC000
ENDCHAR

STARTCHAR W
ENCODING 87
SWIDTH 1131 0
DWIDTH 30 0
BBX 29 15 1 0
BITMAP
FFC01FF8
FFC01FF8
FFC01FF8
7F8007F0
7F8F87F0
7F8F87F0
7F9FC7E0
1F9FC7E0
1FB8E7E0
1FF8FF80
1FF8FF80
1FF8FF80
0FE03F00
0FE03F00
0FE03F00
ENDCHAR

STARTCHAR X
ENCODING 88
SWIDTH 1131 0
DWIDTH 30 0
BBX 26 15 2 0
BITMAP
FF803F00
FFC07F00
FFE0FF00
1FF1FC00
0FFFF800
03FFF000
00FFC000
007FC000
00FFF000
03FFF800
07F3FC00
0FE1FE00
FFC0FF00
FF807FC0
FF803FC0
ENDCHAR

STARTCHAR Y
ENCODING 89
SWIDTH 1131 0
DWIDTH 30 0
BBX 28 15 1 0
BITMAP
FFE03FF0
FFE03FF0
FFF07FF0
0FF07F00
07F8FE00
03FFFC00
01FFF800
007FE000
003FC000
003FC000
003FC000
003FC000
03FFFC00
03FFFC00
03FFFC00
ENDCHAR

STARTCHAR Z
ENCODING 90
SWIDTH 1131 0
DWIDTH 30 0
BBX 22 15 4 0
BITMAP
FFFFF8
FFFFF8
FFFFF0
FC3FE0
FC7FC0
00FF00
01FE00
03FC00
0FF800
1FF0FC
3FC0FC
7F80FC
FFFFFC
FFFFFC
FFFFFC
ENDCHAR

STARTCHAR bracketleft
ENCODING 91
SWIDTH 1131 0
DWIDTH 30 0
BBX 15 21 8 -4
BITMAP
FFFE
FFFE
FFFE
FF80
FF80
FF80
FF80
FF80
FF80
FF80
FF80
FF80
FF80
FF80
FF80
FF80
FF80
FF80
FFFE
FFFE
FFFE
ENDCHAR

STARTCHAR backslash
ENCODING 92
SWIDTH 1131 0
DWIDTH 30 0
BBX 29 20 1 -3
BITMAP
FC000000
7E000000
1F800000
0FC00000
07E00000
03F00000
01F80000
007E0000
003F0000
001F8000
000FC000
0007E000
0001F800
0000FC00
00007E00
00003F00
00001F80
000007E0
000003F0
000001F8
ENDCHAR

STARTCHAR bracketright
ENCODING 93
SWIDTH 1131 0
DWIDTH 30 0
BBX 15 21 8 -4
BITMAP
FFFE
FFFE
FFFE
03FE
03FE
03FE
03FE
03FE
03FE
03FE
03FE
03FE
03FE
03FE
03FE
03FE
03FE
03FE
FFFE
FFFE
FFFE
ENDCHAR

STARTCHAR asciicircum
ENCODING 94
SWIDTH 1131 0
DWIDTH 30 0
BBX 26 7 2 5
BITMAP
003F0000
007F8000
03FFF000
07F3F800
1FE1FE00
FF807FC0
FF003FC0
ENDCHAR

STARTCHAR ldblank
ENCODING 95
SWIDTH 1131 0
DWIDTH 30 0
BBX 1 1 0 0
BITMAP
00
ENDCHAR

STARTCHAR diamond
ENCODING 96
SWIDTH 1131 0
DWIDTH 30 0
BBX 24 15 2 0
BITMAP
001C00
007F00
00FF80
07FFF0
0FFFF8
1FFFFC
3FFFFE
FFFFFF
3FFFFE
1FFFFC
0FFFF8
07FFF0
00FF80
007F00
001C00
ENDCHAR

STARTCHAR checkerboard
ENCODING 97
SWIDTH 1131 0
DWIDTH 30 0
BBX 30 25 0 -5
BITMAP
AAAAAAA8
55555554
AAAAAAA8
55555554
AAAAAAA8
55555554
AAAAAAA8
55555554
AAAAAAA8
55555554
AAAAAAA8
55555554
AAAAAAA8
55555554
AAAAAAA8
55555554
AAAAAAA8
55555554
AAAAAAA8
55555554
AAAAAAA8
55555554
AAAAAAA8
55555554
AAAAAAA8
ENDCHAR

STARTCHAR HT
ENCODING 98
SWIDTH 1131 0
DWIDTH 30 0
BBX 28 20 1 -4
BITMAP
FC1F8000
FC1F8000
FC1F8000
FFFF8000
FFFF8000
FFFF8000
FC1F8000
FC1F8000
FC1F8000
00000000
0001FFF0
0001FFF0
0001FFF0
00003F00
00003F00
00003F00
00003F00
00003F00
00003F00
00003F00
ENDCHAR

STARTCHAR FF
ENCODING 99
SWIDTH 1131 0
DWIDTH 30 0
BBX 26 18 2 -3
BITMAP
FFFC0000
FFFC0000
FFFC0000
FC000000
FC000000
FFE00000
FFE00000
FC000000
FC03FFC0
FC03FFC0
0003FFC0
0003F000
0003F000
0003FE00
0003FE00
0003F000
0003F000
0003F000
ENDCHAR

STARTCHAR CR
ENCODING 100
SWIDTH 1131 0
DWIDTH 30 0
BBX 28 18 1 -2
BITMAP
0FF00000
7FFE0000
FFFF0000
FC1F0000
FC000000
FC000000
FFFF0000
7FFE0000
0FF00000
00000000
0007FFE0
0007FFF0
0007E1F0
0007E1F0
0007FFE0
0007FFE0
0007E3F0
0007E1F0
ENDCHAR

STARTCHAR LF
ENCODING 101
SWIDTH 1131 0
DWIDTH 30 0
BBX 28 18 1 -2
BITMAP
FC000000
FC000000
FC000000
FC000000
FC000000
FFFE0000
FFFE0000
FFFE0000
00000000
0001FFF0
0001FFF0
0001FFF0
0001F800
0001F800
0001FF80
0001FF80
0001F800
0001F800
ENDCHAR

STARTCHAR degree
ENCODING 102
SWIDTH 1131 0
DWIDTH 30 0
BBX 18 8 6 9
BITMAP
0FFC00
7FFF80
FC0FC0
FC0FC0
FC0FC0
FC0FC0
7FFF80
0FFC00
ENDCHAR

STARTCHAR plusminus
ENCODING 103
SWIDTH 1131 0
DWIDTH 30 0
BBX 26 15 2 0
BITMAP
007F8000
007F8000
007F8000
007F8000
FFFFFFC0
FFFFFFC0
FFFFFFC0
007F8000
007F8000
007F8000
007F8000
00000000
FFFFFFC0
FFFFFFC0
FFFFFFC0
ENDCHAR

STARTCHAR NL
ENCODING 104
SWIDTH 1131 0
DWIDTH 30 0
BBX 28 18 1 -2
BITMAP
F81F8000
FC1F8000
FE1F8000
FF9F8000
FFDF8000
FDFF8000
FC7F8000
FC3F8000
FC1F8000
00000000
00007E00
00007E00
00007E00
00007E00
00007E00
00007E00
00007FF0
00007FF0
ENDCHAR

STARTCHAR VT
ENCODING 105
SWIDTH 1131 0
DWIDTH 30 0
BBX 24 18 4 -2
BITMAP
FC3F00
FC3F00
FC3F00
FC3F00
FE7F00
3FFC00
3FFC00
03C000
03C000
0007FF
0007FF
0007FF
0001F8
0001F8
0001F8
0001F8
0001F8
0001F8
ENDCHAR

STARTCHAR ldcornsqlr
ENCODING 106
SWIDTH 1131 0
DWIDTH 30 0
BBX 19 14 0 6
BITMAP
001FE0
001FE0
001FE0
001FE0
001FE0
001FE0
001FE0
001FE0
001FE0
001FE0
001FE0
FFFFE0
FFFFE0
FFFFE0
ENDCHAR

STARTCHAR ldcornsqur
ENCODING 107
SWIDTH 1131 0
DWIDTH 30 0
BBX 19 14 0 -5
BITMAP
FFFFE0
FFFFE0
FFFFE0
001FE0
001FE0
001FE0
001FE0
001FE0
001FE0
001FE0
001FE0
001FE0
001FE0
001FE0
ENDCHAR

STARTCHAR ldcornsqul
ENCODING 108
SWIDTH 1131 0
DWIDTH 30 0
BBX 19 14 11 -5
BITMAP
FFFFE0
FFFFE0
FFFFE0
FF0000
FF0000
FF0000
FF0000
FF0000
FF0000
FF0000
FF0000
FF0000
FF0000
FF0000
ENDCHAR

STARTCHAR ldcornsqll
ENCODING 109
SWIDTH 1131 0
DWIDTH 30 0
BBX 19 14 11 6
BITMAP
FF0000
FF0000
FF0000
FF0000
FF0000
FF0000
FF0000
FF0000
FF0000
FF0000
FF0000
FFFFE0
FFFFE0
FFFFE0
ENDCHAR

STARTCHAR ldcross
ENCODING 110
SWIDTH 1131 0
DWIDTH 30 0
BBX 30 25 0 -5
BITMAP
001FE000
001FE000
001FE000
001FE000
001FE000
001FE000
001FE000
001FE000
001FE000
001FE000
001FE000
FFFFFFFC
FFFFFFFC
FFFFFFFC
001FE000
001FE000
001FE000
001FE000
001FE000
001FE000
001FE000
001FE000
001FE000
001FE000
001FE000
ENDCHAR

STARTCHAR ldscan1
ENCODING 111
SWIDTH 1131 0
DWIDTH 30 0
BBX 30 3 0 15
BITMAP
FFFFFFFC
FFFFFFFC
FFFFFFFC
ENDCHAR

STARTCHAR ldscan3
ENCODING 112
SWIDTH 1131 0
DWIDTH 30 0
BBX 30 3 0 10
BITMAP
FFFFFFFC
FFFFFFFC
FFFFFFFC
ENDCHAR

STARTCHAR ldhorizontal
ENCODING 113
SWIDTH 1131 0
DWIDTH 30 0
BBX 30 3 0 6
BITMAP
FFFFFFFC
FFFFFFFC
FFFFFFFC
ENDCHAR

STARTCHAR ldscan7
ENCODING 114
SWIDTH 1131 0
DWIDTH 30 0
BBX 30 3 0 0
BITMAP
FFFFFFFC
FFFFFFFC
FFFFFFFC
ENDCHAR

STARTCHAR ldscan9
ENCODING 115
SWIDTH 1131 0
DWIDTH 30 0
BBX 30 3 0 -5
BITMAP
FFFFFFFC
FFFFFFFC
FFFFFFFC
ENDCHAR

STARTCHAR ldteelft
ENCODING 116
SWIDTH 1131 0
DWIDTH 30 0
BBX 19 25 11 -5
BITMAP
FF0000
FF0000
FF0000
FF0000
FF0000
FF0000
FF0000
FF0000
FF0000
FF0000
FF0000
FFFFE0
FFFFE0
FFFFE0
FF0000
FF0000
FF0000
FF0000
FF0000
FF0000
FF0000
FF0000
FF0000
FF0000
FF0000
ENDCHAR

STARTCHAR ldteert
ENCODING 117
SWIDTH 1131 0
DWIDTH 30 0
BBX 19 25 0 -5
BITMAP
001FE0
001FE0
001FE0
001FE0
001FE0
001FE0
001FE0
001FE0
001FE0
001FE0
001FE0
FFFFE0
FFFFE0
FFFFE0
001FE0
001FE0
001FE0
001FE0
001FE0
001FE0
001FE0
001FE0
001FE0
001FE0
001FE0
ENDCHAR

STARTCHAR ldteebt
ENCODING 118
SWIDTH 1131 0
DWIDTH 30 0
BBX 30 14 0 6
BITMAP
001FE000
001FE000
001FE000
001FE000
001FE000
001FE000
001FE000
001FE000
001FE000
001FE000
001FE000
FFFFFFFC
FFFFFFFC
FFFFFFFC
ENDCHAR

STARTCHAR ldteetp
ENCODING 119
SWIDTH 1131 0
DWIDTH 30 0
BBX 30 14 0 -5
BITMAP
FFFFFFFC
FFFFFFFC
FFFFFFFC
001FE000
001FE000
001FE000
001FE000
001FE000
001FE000
001FE000
001FE000
001FE000
001FE000
001FE000
ENDCHAR

STARTCHAR ldvertical
ENCODING 120
SWIDTH 1131 0
DWIDTH 30 0
BBX 8 25 11 -5
BITMAP
FF
FF
FF
FF
FF
FF
FF
FF
FF
FF
FF
FF
FF
FF
FF
FF
FF
FF
FF
FF
FF
FF
FF
FF
FF
ENDCHAR

STARTCHAR lessequal
ENCODING 121
SWIDTH 1131 0
DWIDTH 30 0
BBX 28 14 1 0
BITMAP
00001FF0
0001FFF0
003FFFF0
07FFE000
FFE00000
FFE00000
07FFE000
003FFFF0
0007FFF0
00001FF0
00000000
FFFFFFF0
FFFFFFF0
FFFFFFF0
ENDCHAR

STARTCHAR greaterequal
ENCODING 122
SWIDTH 1131 0
DWIDTH 30 0
BBX 28 14 1 0
BITMAP
FF800000
FFF80000
FFFFC000
007FFE00
00007FF0
00007FF0
007FFE00
FFFFC000
FFFE0000
FF800000
00000000
FFFFFFF0
FFFFFFF0
FFFFFFF0
ENDCHAR

STARTCHAR pi
ENCODING 123
SWIDTH 1131 0
DWIDTH 30 0
BBX 28 12 1 0
BITMAP
FFFFFFF0
FFFFFFF0
1FC07F00
1FC07F00
1FC0FE00
7F80FE00
7F80FC00
7F80FC00
7F81FC00
FE01FC00
FE01FF80
FE00FF80
ENDCHAR

STARTCHAR notequal
ENCODING 124
SWIDTH 1131 0
DWIDTH 30 0
BBX 26 14 2 0
BITMAP
00007800
0000F000
0000F000
FFFFFFC0
FFFFFFC0
FFFFFFC0
000F0000
001E0000
FFFFFFC0
FFFFFFC0
FFFFFFC0
03C00000
03C00000
07800000
ENDCHAR

STARTCHAR sterling
ENCODING 125
SWIDTH 1131 0
DWIDTH 30 0
BBX 27 15 2 0
BITMAP
00FFFC00
07FFFF00
07FFFF00
07FC3F00
03FC0000
FFFFFC00
FFFFFC00
FFFFFC00
00FE0000
00FE0000
00FE0000
00FF01E0
3FFFFFE0
3FFFFFE0
3FC1FF00
ENDCHAR

STARTCHAR periodcentered
ENCODING 126
SWIDTH 1131 0
DWIDTH 30 0
BBX 10 5 10 5
BITMAP
3F00
FFC0
FFC0
FFC0
3F00
ENDCHAR

STARTCHAR Error
ENCODING 159
SWIDTH 1131 0
DWIDTH 30 0
BBX 30 25 0 -5
BITMAP
03FFFF80
0FFFFFF0
3FFFFFF8
7FF81FFC
7FF00FFC
FFE003FC
FFE003FC
FFE003FC
FFF00000
FFF80000
7FFF8000
3FFFE000
0FFFF000
03FFFC00
003FFC00
000FFC00
000FFC00
000FFC00
00000000
00000000
0007F000
000FFC00
000FFC00
000FFC00
0007F000
ENDCHAR

STARTCHAR ldradicalbt
ENCODING 161
SWIDTH 1131 0
DWIDTH 30 0
BBX 17 16 2 4
BITMAP
007F80
007F80
007F80
007F80
007F80
F07F80
F87F80
FC7F80
FF7F80
3FFF80
1FFF80
0FFF80
07FF80
03FF80
00FF80
007F80
ENDCHAR

STARTCHAR ldradicaltp
ENCODING 162
SWIDTH 1131 0
DWIDTH 30 0
BBX 19 14 11 -5
BITMAP
FFFFE0
FFFFE0
FFFFE0
FF0000
FF0000
FF0000
FF0000
FF0000
FF0000
FF0000
FF0000
FF0000
FF0000
FF0000
ENDCHAR

STARTCHAR ldhorizontal
ENCODING 163
SWIDTH 1131 0
DWIDTH 30 0
BBX 30 3 0 6
BITMAP
FFFFFFFC
FFFFFFFC
FFFFFFFC
ENDCHAR

STARTCHAR ldintegraltp
ENCODING 164
SWIDTH 1131 0
DWIDTH 30 0
BBX 18 23 11 -5
BITMAP
07FFC0
3FFFC0
7FFFC0
7F8000
FF0000
FF0000
FF0000
FF0000
FF0000
FF0000
FF0000
FF0000
FF0000
FF0000
FF0000
FF0000
FF0000
FF0000
FF0000
FF0000
FF0000
FF0000
FF0000
ENDCHAR

STARTCHAR ldintegralbt
ENCODING 165
SWIDTH 1131 0
DWIDTH 30 0
BBX 19 24 0 -4
BITMAP
001FE0
001FE0
001FE0
001FE0
001FE0
001FE0
001FE0
001FE0
001FE0
001FE0
001FE0
001FE0
001FE0
001FE0
001FE0
001FE0
001FE0
001FE0
001FE0
001FE0
003FC0
FFFFC0
FFFF80
FFFC00
ENDCHAR

STARTCHAR ldvertical
ENCODING 166
SWIDTH 1131 0
DWIDTH 30 0
BBX 8 25 11 -5
BITMAP
FF
FF
FF
FF
FF
FF
FF
FF
FF
FF
FF
FF
FF
FF
FF
FF
FF
FF
FF
FF
FF
FF
FF
FF
FF
ENDCHAR

STARTCHAR ldbracketlfttp
ENCODING 167
SWIDTH 1131 0
DWIDTH 30 0
BBX 14 23 11 -5
BITMAP
FFFC
FFFC
FFFC
FF00
FF00
FF00
FF00
FF00
FF00
FF00
FF00
FF00
FF00
FF00
FF00
FF00
FF00
FF00
FF00
FF00
FF00
FF00
FF00
ENDCHAR

STARTCHAR ldbracketlftbt
ENCODING 168
SWIDTH 1131 0
DWIDTH 30 0
BBX 14 24 11 -4
BITMAP
FF00
FF00
FF00
FF00
FF00
FF00
FF00
FF00
FF00
FF00
FF00
FF00
FF00
FF00
FF00
FF00
FF00
FF00
FF00
FF00
FF00
FFFC
FFFC
FFFC
ENDCHAR

STARTCHAR ldbracketrttp
ENCODING 169
SWIDTH 1131 0
DWIDTH 30 0
BBX 14 23 5 -5
BITMAP
FFFC
FFFC
FFFC
03FC
03FC
03FC
03FC
03FC
03FC
03FC
03FC
03FC
03FC
03FC
03FC
03FC
03FC
03FC
03FC
03FC
03FC
03FC
03FC
ENDCHAR

STARTCHAR ldbracketrtbt
ENCODING 170
SWIDTH 1131 0
DWIDTH 30 0
BBX 14 24 5 -4
BITMAP
03FC
03FC
03FC
03FC
03FC
03FC
03FC
03FC
03FC
03FC
03FC
03FC
03FC
03FC
03FC
03FC
03FC
03FC
03FC
03FC
03FC
FFFC
FFFC
FFFC
ENDCHAR

STARTCHAR ldbracelfttp
ENCODING 171
SWIDTH 1131 0
DWIDTH 30 0
BBX 17 23 11 -5
BITMAP
07FF80
3FFF80
7FFF80
7F8000
FF0000
FF0000
FF0000
FF0000
FF0000
FF0000
FF0000
FF0000
FF0000
FF0000
FF0000
FF0000
FF0000
FF0000
FF0000
FF0000
FF0000
FF0000
FF0000
ENDCHAR

STARTCHAR ldbracelftbt
ENCODING 172
SWIDTH 1131 0
DWIDTH 30 0
BBX 17 24 11 -4
BITMAP
FF0000
FF0000
FF0000
FF0000
FF0000
FF0000
FF0000
FF0000
FF0000
FF0000
FF0000
FF0000
FF0000
FF0000
FF0000
FF0000
FF0000
FF0000
FF0000
FF0000
7F8000
7FFF80
3FFF80
07FF80
ENDCHAR

STARTCHAR ldbracerttp
ENCODING 173
SWIDTH 1131 0
DWIDTH 30 0
BBX 17 23 2 -5
BITMAP
FFF000
FFFE00
FFFF00
00FF00
007F80
007F80
007F80
007F80
007F80
007F80
007F80
007F80
007F80
007F80
007F80
007F80
007F80
007F80
007F80
007F80
007F80
007F80
007F80
ENDCHAR

STARTCHAR ldbracertbt
ENCODING 174
SWIDTH 1131 0
DWIDTH 30 0
BBX 17 24 2 -4
BITMAP
007F80
007F80
007F80
007F80
007F80
007F80
007F80
007F80
007F80
007F80
007F80
007F80
007F80
007F80
007F80
007F80
007F80
007F80
007F80
007F80
00FF00
FFFF00
FFFE00
FFF000
ENDCHAR

STARTCHAR ldbracelftmid
ENCODING 175
SWIDTH 1131 0
DWIDTH 30 0
BBX 13 25 6 -5
BITMAP
07F8
07F8
07F8
07F8
07F8
07F8
07F8
07F8
07F0
07F0
0FE0
0FE0
FF00
FF00
0FE0
0FE0
07F0
07F0
07F8
07F8
07F8
07F8
07F8
07F8
07F8
ENDCHAR

STARTCHAR ldbracertmid
ENCODING 176
SWIDTH 1131 0
DWIDTH 30 0
BBX 13 25 11 -5
BITMAP
FF00
FF00
FF00
FF00
FF00
FF00
FF00
FF00
7F00
7F00
3F80
3F80
07F8
07F8
3F80
3F80
7F00
7F00
FF00
FF00
FF00
FF00
FF00
FF00
FF00
ENDCHAR

STARTCHAR ldsigmalfttp
ENCODING 177
SWIDTH 1131 0
DWIDTH 30 0
BBX 18 14 12 -5
BITMAP
FFFFC0
FFFFC0
FFFFC0
7FC000
3FE000
0FF000
07F800
03FC00
01FF00
00FF80
003FC0
001FC0
000FC0
0007C0
ENDCHAR

STARTCHAR ldsigmalftbt
ENCODING 178
SWIDTH 1131 0
DWIDTH 30 0
BBX 19 14 11 6
BITMAP
0003E0
0007E0
000FE0
001FE0
007FC0
00FF80
01FE00
03FC00
07F800
1FF000
3FE000
7FFFE0
FFFFE0
FFFFE0
ENDCHAR

STARTCHAR ldbackslash
ENCODING 179
SWIDTH 1131 0
DWIDTH 30 0
BBX 30 25 0 -5
BITMAP
F8000000
FC000000
FE000000
FF000000
7FC00000
3FE00000
0FF00000
07F80000
03FC0000
01FF0000
00FF8000
003FC000
001FE000
000FF000
0007FC00
0003FE00
0000FF00
00007F80
00003FC0
00001FF0
00000FF8
000003FC
000001FC
000000FC
0000007C
ENDCHAR

STARTCHAR ldslash
ENCODING 180
SWIDTH 1131 0
DWIDTH 30 0
BBX 30 25 0 -5
BITMAP
0000007C
000000FC
000001FC
000003FC
00000FF8
00001FF0
00003FC0
00007F80
0000FF00
0003FE00
0007FC00
000FF000
001FE000
003FC000
00FF8000
01FF0000
03FC0000
07F80000
0FF00000
3FE00000
7FC00000
FF000000
FE000000
FC000000
78000000
ENDCHAR

STARTCHAR ldsigmarttp
ENCODING 181
SWIDTH 1131 0
DWIDTH 30 0
BBX 30 9 0 0
BITMAP
FFFFFFFC
FFFFFFFC
FFFFFFFC
000001FC
000001FC
000001FC
000001FC
000001FC
000001FC
ENDCHAR

STARTCHAR ldsigmartbt
ENCODING 182
SWIDTH 1131 0
DWIDTH 30 0
BBX 30 8 0 6
BITMAP
000001FC
000001FC
000001FC
000001FC
000001FC
FFFFFFFC
FFFFFFFC
FFFFFFFC
ENDCHAR

STARTCHAR ldsigmamid
ENCODING 183
SWIDTH 1131 0
DWIDTH 30 0
BBX 16 24 0 -4
BITMAP
F000
F800
FC00
FE00
7F00
3FC0
0FE0
07F0
03F8
01FC
00FF
003F
003F
00FF
01FC
03F8
07F0
0FE0
3FC0
7F00
FE00
FC00
F800
F000
ENDCHAR

STARTCHAR lessequal
ENCODING 188
SWIDTH 1131 0
DWIDTH 30 0
BBX 28 14 1 0
BITMAP
00001FF0
0001FFF0
003FFFF0
07FFE000
FFE00000
FFE00000
07FFE000
003FFFF0
0007FFF0
00001FF0
00000000
FFFFFFF0
FFFFFFF0
FFFFFFF0
ENDCHAR

STARTCHAR notequal
ENCODING 189
SWIDTH 1131 0
DWIDTH 30 0
BBX 26 14 2 0
BITMAP
00007800
0000F000
0000F000
FFFFFFC0
FFFFFFC0
FFFFFFC0
000F0000
001E0000
FFFFFFC0
FFFFFFC0
FFFFFFC0
03C00000
03C00000
07800000
ENDCHAR

STARTCHAR greaterequal
ENCODING 190
SWIDTH 1131 0
DWIDTH 30 0
BBX 28 14 1 0
BITMAP
FF800000
FFF80000
FFFFC000
007FFE00
00007FF0
00007FF0
007FFE00
FFFFC000
FFFE0000
FF800000
00000000
FFFFFFF0
FFFFFFF0
FFFFFFF0
ENDCHAR

STARTCHAR integral
ENCODING 191
SWIDTH 1131 0
DWIDTH 30 0
BBX 28 24 1 -5
BITMAP
0001FFE0
000FFFF0
001FC1F0
001FC1F0
003FC000
003FC000
003FC000
003FC000
003FC000
003FC000
003FC000
003FC000
003FC000
003FC000
003FC000
003FC000
003FC000
003FC000
003FC000
003FC000
F83FC000
F83F8000
FFFF8000
7FFE0000
ENDCHAR

STARTCHAR therefore
ENCODING 192
SWIDTH 1131 0
DWIDTH 30 0
BBX 28 13 1 0
BITMAP
001F8000
007FE000
007FE000
007FE000
001F8000
00000000
00000000
00000000
1F801F80
FFE07FF0
FFE07FF0
FFE07FF0
1F801F80
ENDCHAR

STARTCHAR proportional
ENCODING 193
SWIDTH 1131 0
DWIDTH 30 0
BBX 28 11 1 1
BITMAP
07FE3FF0
1FFFFFF0
7E1FF800
FC07E000
FC07C000
FC07C000
FC07C000
FC07E000
7E1FFC00
1FFFFFF0
07F83FF0
ENDCHAR

STARTCHAR infinity
ENCODING 194
SWIDTH 1131 0
DWIDTH 30 0
BBX 29 11 1 1
BITMAP
07F8FF00
1FFFFFE0
7E1FC3F0
FC0F81F8
FC0F81F8
FC0F81F8
FC0F81F8
FC0F81F8
7E1FC3F0
1FFFFFE0
07F8FF00
ENDCHAR

STARTCHAR divide
ENCODING 195
SWIDTH 1131 0
DWIDTH 30 0
BBX 28 15 1 0
BITMAP
001F8000
007FE000
007FE000
001F8000
00000000
00000000
FFFFFFF0
FFFFFFF0
FFFFFFF0
00000000
00000000
001F8000
007FE000
007FE000
001F8000
ENDCHAR

STARTCHAR Delta
ENCODING 196
SWIDTH 1131 0
DWIDTH 30 0
BBX 28 15 1 0
BITMAP
001F8000
003FC000
007FE000
01FFF800
01FFFC00
03F8FE00
07F07E00
0FE03F00
1FC01F80
1F801FE0
7F8007E0
FE0003F0
FFFFFFF0
FFFFFFF0
FFFFFFF0
ENDCHAR

STARTCHAR gradient
ENCODING 197
SWIDTH 1131 0
DWIDTH 30 0
BBX 28 15 1 0
BITMAP
FFFFFFF0
FFFFFFF0
FFFFFFF0
FE0003F0
7F8007E0
1F801FE0
1FC01F80
0FE03F00
07F07E00
03F8FE00
01FFFC00
01FFF800
007FE000
003FC000
001F8000
ENDCHAR

STARTCHAR Phi
ENCODING 198
SWIDTH 1131 0
DWIDTH 30 0
BBX 26 15 2 0
BITMAP
03FFF800
03FFF800
003F8000
0FFFFE00
3FFFFF00
FC3F87C0
FC3F87C0
FC3F87C0
FC3F87C0
FC3F87C0
3FFFFF00
0FFFFE00
003F8000
03FFF800
03FFF800
ENDCHAR

STARTCHAR Gamma
ENCODING 199
SWIDTH 1131 0
DWIDTH 30 0
BBX 26 15 2 0
BITMAP
FFFFFFC0
FFFFFFC0
FFFFFFC0
0FF03FC0
0FF03FC0
0FF03FC0
0FF03FC0
0FF00000
0FF00000
0FF00000
0FF00000
0FF00000
FFFF8000
FFFF8000
FFFF8000
ENDCHAR

STARTCHAR similar
ENCODING 200
SWIDTH 1131 0
DWIDTH 30 0
BBX 22 6 4 5
BITMAP
1FC03C
7FF83C
7FFE3C
FCFFFC
F00FF8
F003F0
ENDCHAR

STARTCHAR approxequal
ENCODING 201
SWIDTH 1131 0
DWIDTH 30 0
BBX 26 12 2 1
BITMAP
07F00F00
1FFE0F00
1FFF8F00
3F3FFF00
3C0FFE00
3C01FC00
00000000
00000000
00000000
FFFFFFC0
FFFFFFC0
FFFFFFC0
ENDCHAR

STARTCHAR Theta
ENCODING 202
SWIDTH 1131 0
DWIDTH 30 0
BBX 28 15 1 0
BITMAP
01FFF800
07FFFE00
1FE07F80
7FC03FE0
7F801FE0
FF801FF0
FF9F9FF0
FF9F9FF0
FF9F9FF0
FF801FF0
7F801FE0
7FC03FE0
1FE07F80
07FFFE00
01FFF800
ENDCHAR

STARTCHAR multiply
ENCODING 203
SWIDTH 1131 0
DWIDTH 30 0
BBX 22 12 4 1
BITMAP
1C0030
7E00F8
FF83FC
3FFFF8
1FFFE0
03FF00
03FF00
1FFFE0
7FFFF8
FF83FC
7E01F8
3C00F0
ENDCHAR

STARTCHAR Lambda
ENCODING 204
SWIDTH 1131 0
DWIDTH 30 0
BBX 28 15 1 0
BITMAP
001F8000
003FC000
007FE000
007FF800
01FFF800
03F9FC00
07F0FE00
07E07F00
0FC07F00
1F803F80
7F803FE0
7E001FE0
FFE0FFF0
FFE0FFF0
FFE0FFF0
ENDCHAR

STARTCHAR arrowdblboth
ENCODING 205
SWIDTH 1131 0
DWIDTH 30 0
BBX 30 14 0 1
BITMAP
01E01E00
03C00F00
07000380
0FFFFFC0
3FFFFFF0
7FFFFFF8
FE0001FC
FE0001FC
7FFFFFF8
3FFFFFF0
0FFFFFC0
07000380
03C00F00
01E01E00
ENDCHAR

STARTCHAR arrowdblright
ENCODING 206
SWIDTH 1131 0
DWIDTH 30 0
BBX 27 14 2 1
BITMAP
0000F000
00007800
00003C00
FFFFFE00
FFFFFF00
FFFFFFC0
00000FE0
00000FE0
FFFFFFC0
FFFFFF00
FFFFFE00
00003C00
00007800
0000F000
ENDCHAR

STARTCHAR equivalence
ENCODING 207
SWIDTH 1131 0
DWIDTH 30 0
BBX 26 13 2 1
BITMAP
FFFFFFC0
FFFFFFC0
FFFFFFC0
00000000
00000000
FFFFFFC0
FFFFFFC0
FFFFFFC0
00000000
00000000
FFFFFFC0
FFFFFFC0
FFFFFFC0
ENDCHAR

STARTCHAR Pi
ENCODING 208
SWIDTH 1131 0
DWIDTH 30 0
BBX 28 15 1 0
BITMAP
FFFFFFF0
FFFFFFF0
FFFFFFF0
1FE07F80
1FE07F80
1FE07F80
1FE07F80
1FE07F80
1FE07F80
1FE07F80
1FE07F80
1FE07F80
FFE07FF0
FFE07FF0
FFE07FF0
ENDCHAR

STARTCHAR Psi
ENCODING 209
SWIDTH 1131 0
DWIDTH 30 0
BBX 26 15 2 0
BITMAP
07FFF800
07FFF800
007F8000
F87F87C0
F87F87C0
F87F87C0
F87F87C0
F87F87C0
FC7F8FC0
3FFFFF00
0FFFFC00
007F8000
007F8000
07FFF800
07FFF800
ENDCHAR

STARTCHAR Sigma
ENCODING 211
SWIDTH 1131 0
DWIDTH 30 0
BBX 27 15 2 0
BITMAP
FFFFFFE0
FFFFFFE0
FFFFFFE0
3FC003E0
0FF003E0
03FE0000
007F0000
003F8000
00FF0000
07FC03E0
0FE003E0
3FC003E0
FFFFFFE0
FFFFFFE0
FFFFFFE0
ENDCHAR

STARTCHAR radical
ENCODING 214
SWIDTH 1131 0
DWIDTH 30 0
BBX 30 21 0 -3
BITMAP
000001FC
000001FC
000003FC
000003F0
00000FC0
00000FC0
FE001F80
FE001F80
7F003F00
3F003F00
3FC07E00
0FC07E00
0FE0FC00
07E0FC00
07F3F000
03FFF000
03FFE000
01FFE000
01FFC000
00FFC000
00FF8000
ENDCHAR

STARTCHAR Omega
ENCODING 215
SWIDTH 1131 0
DWIDTH 30 0
BBX 26 15 2 0
BITMAP
00FFC000
07FFF800
1FC0FE00
3F807F00
FF807FC0
FF807FC0
FF807FC0
FF807FC0
3F807F00
1F807E00
0FC0FC00
03E1F000
3FE1FF00
3FE1FF00
3FE1FF00
ENDCHAR

STARTCHAR Xi
ENCODING 216
SWIDTH 1131 0
DWIDTH 30 0
BBX 26 15 2 0
BITMAP
FFFFFFC0
FFFFFFC0
FFFFFFC0
FF003FC0
00000000
0FC0FC00
0FFFFC00
0FFFFC00
0FC0FC00
00000000
FF003FC0
FF003FC0
FFFFFFC0
FFFFFFC0
FFFFFFC0
ENDCHAR

STARTCHAR Upsilon1
ENCODING 217
SWIDTH 1131 0
DWIDTH 30 0
BBX 24 15 4 0
BITMAP
FF01FF
FF01FF
FF01FF
3F83F8
1F83F0
0FC7E0
0FC7E0
03FF00
03FF00
01FE00
01FE00
01FE00
1FFFE0
1FFFE0
1FFFE0
ENDCHAR

STARTCHAR propersubset
ENCODING 218
SWIDTH 1131 0
DWIDTH 30 0
BBX 26 15 2 0
BITMAP
00FFFFC0
0FFFFFC0
0FFFFFC0
3FE00000
3FC00000
FF800000
FF800000
FF800000
FF800000
FF800000
3FC00000
3FE00000
0FFFFFC0
0FFFFFC0
00FFFFC0
ENDCHAR

STARTCHAR propersuperset
ENCODING 219
SWIDTH 1131 0
DWIDTH 30 0
BBX 26 15 2 0
BITMAP
FFFFC000
FFFFFC00
FFFFFC00
0001FF00
0000FF00
00007FC0
00007FC0
00007FC0
00007FC0
00007FC0
0000FF00
0001FF00
FFFFFC00
FFFFFC00
FFFFC000
ENDCHAR

STARTCHAR intersection
ENCODING 220
SWIDTH 1131 0
DWIDTH 30 0
BBX 28 15 1 0
BITMAP
03FFFC00
1FFFFF80
1FFFFF80
7FC03FE0
7F801FE0
FF801FF0
FF801FF0
FF801FF0
FF801FF0
FF801FF0
FF801FF0
FF801FF0
FF801FF0
FF801FF0
FF801FF0
ENDCHAR

STARTCHAR union
ENCODING 221
SWIDTH 1131 0
DWIDTH 30 0
BBX 28 15 1 0
BITMAP
FF801FF0
FF801FF0
FF801FF0
FF801FF0
FF801FF0
FF801FF0
FF801FF0
FF801FF0
FF801FF0
FF801FF0
7F801FE0
7FC03FE0
1FFFFF80
1FFFFF80
03FFFC00
ENDCHAR

STARTCHAR logicaland
ENCODING 222
SWIDTH 1131 0
DWIDTH 30 0
BBX 28 13 1 1
BITMAP
007FE000
007FF800
01FFF800
01FFFC00
03F8FE00
07F8FE00
07F07F00
0FF07F00
1FE07F80
1FE03F80
7FC03FE0
7F801FF0
FF801FF0
ENDCHAR

STARTCHAR logicalor
ENCODING 223
SWIDTH 1131 0
DWIDTH 30 0
BBX 28 13 1 1
BITMAP
FF801FF0
7F801FF0
7FC03FE0
1FE03F80
1FE07F80
0FF07F00
07F07F00
07F8FE00
03F8FE00
01FFFC00
01FFF800
007FF800
007FE000
ENDCHAR

STARTCHAR logicalnot
ENCODING 224
SWIDTH 1131 0
DWIDTH 30 0
BBX 26 8 2 3
BITMAP
FFFFFFC0
FFFFFFC0
FFFFFFC0
00007FC0
00007FC0
00007FC0
00007FC0
00007FC0
ENDCHAR

STARTCHAR alpha
ENCODING 225
SWIDTH 1131 0
DWIDTH 30 0
BBX 28 12 1 0
BITMAP
01FF81F0
07FFE3F0
1FC1FFF0
7FC0FF00
7F807F00
FF807E00
FF807C00
FF807E00
7F80FE00
7FC1FFF0
1FFFFFF0
07FF87F0
ENDCHAR

STARTCHAR beta
ENCODING 226
SWIDTH 1131 0
DWIDTH 30 0
BBX 29 22 0 -5
BITMAP
000FFF80
003FFFF0
00FF03F8
01FC01F8
01F801F8
03F801F8
03F003F0
07F0FFC0
07E0FFC0
0FE01FF0
0FE00FF8
0FC00FF8
3FC00FF8
3FE00FF8
3FF01FF0
7FFFFFF0
7E1FFF80
7E000000
7E000000
FC000000
FC000000
FC000000
ENDCHAR

STARTCHAR chi
ENCODING 227
SWIDTH 1131 0
DWIDTH 30 0
BBX 28 17 1 -5
BITMAP
1FE001F0
1FF003F0
0FF81FF0
03F81FE0
01FE7F00
01FFFE00
007FF800
003FE000
001F8000
003FC000
01FFE000
03FFF800
0FF7FC00
7FE1FE00
FF80FF00
FE00FF80
F8007F80
ENDCHAR

STARTCHAR delta
ENCODING 228
SWIDTH 1131 0
DWIDTH 30 0
BBX 28 17 1 0
BITMAP
003FFFF0
01FFFFF0
03FF0000
03FE0000
007F8000
001FF800
03FFFE00
0FFFFF80
7FC03FE0
7F801FE0
FF801FF0
FF801FF0
FF801FF0
7F801FE0
7FC03FE0
0FFFFF00
03FFFC00
ENDCHAR

STARTCHAR epsilon
ENCODING 229
SWIDTH 1131 0
DWIDTH 30 0
BBX 24 12 2 0
BITMAP
03FFFF
0FFFFF
1FE000
3FC000
3FFFF8
FFFFF8
FF8000
FF8000
FF8000
3FC000
1FFFFE
07FFFE
ENDCHAR

STARTCHAR phi
ENCODING 230
SWIDTH 1131 0
DWIDTH 30 0
BBX 26 22 2 -5
BITMAP
0003C000
0003C000
0003C000
00038000
000F8000
00FFFC00
0FFFFF00
1FCF3F00
3F0F0FC0
FF0F0FC0
FC1F0FC0
FC1E0FC0
FC1E3FC0
FC1E3F00
3F3E7F00
3FFFFC00
0FFFF000
003E0000
003C0000
007C0000
007C0000
007C0000
ENDCHAR

STARTCHAR gamma
ENCODING 231
SWIDTH 1131 0
DWIDTH 30 0
BBX 28 17 1 -5
BITMAP
FF8007F0
FFC01FF0
7FC03FE0
1FE03F80
0FE07F00
07F0FE00
03F0FC00
01FFFC00
007FF800
007FE000
003FC000
003F8000
007F0000
01FE0000
01FE0000
03F80000
07F00000
ENDCHAR

STARTCHAR eta
ENCODING 232
SWIDTH 1131 0
DWIDTH 30 0
BBX 28 17 1 -5
BITMAP
FFE1FF00
FFFFFFE0
1FFE3FF0
1FF01FF0
1FE01FF0
7FC01FF0
7FC03FE0
7FC03FE0
7F803FE0
FF803F80
FF807F80
FF807F80
00007F80
0000FF80
0000FF00
0000FF00
0000FF00
ENDCHAR

STARTCHAR iota
ENCODING 233
SWIDTH 1131 0
DWIDTH 30 0
BBX 21 12 5 0
BITMAP
FFF800
FFF800
07F000
07F000
1FF000
1FE000
1FE000
1FE000
3FE1F8
3FFFF8
3FFFF8
1FFFE0
ENDCHAR

STARTCHAR theta
ENCODING 234
SWIDTH 1131 0
DWIDTH 30 0
BBX 28 17 1 0
BITMAP
003FFC00
01FFFF00
07F81FE0
0FE007E0
0FC007F0
1FC007F0
7F8007F0
7FFFFFF0
FFFFFFF0
FF801FF0
FE001FE0
FE001FE0
FE003F80
7E003F80
7F80FF00
1FFFFC00
07FFC000
ENDCHAR

STARTCHAR kappa
ENCODING 235
SWIDTH 1131 0
DWIDTH 30 0
BBX 26 12 2 0
BITMAP
FFE03FC0
FFE07FC0
1FE0FE00
1FE1FC00
1FFFF000
3FFFC000
3FFFC000
3FFFF000
3F8FFC00
FF83FE00
FF81FF00
FF807FC0
ENDCHAR

STARTCHAR lambda
ENCODING 236
SWIDTH 1131 0
DWIDTH 30 0
BBX 28 17 1 0
BITMAP
01FF0000
01FF8000
003FC000
001FC000
001FE000
000FE000
001FF800
003FFC00
007FFC00
007FFE00
01FFFE00
03FE7F00
07F87F80
0FF03F80
1FE03FE0
7FC01FE0
FF801FF0
ENDCHAR

STARTCHAR nu
ENCODING 238
SWIDTH 1131 0
DWIDTH 30 0
BBX 27 12 2 0
BITMAP
FFF03FE0
FFF03FE0
07F03FE0
07F03FE0
07F03FE0
07F07FC0
07F07FC0
07F0FF00
07FFFC00
07FFF800
07FFC000
07FF0000
ENDCHAR

STARTCHAR partialdiff
ENCODING 239
SWIDTH 1131 0
DWIDTH 30 0
BBX 22 17 4 0
BITMAP
1FFE00
1FFFC0
1FFFF0
0007F8
0003F8
0003FC
0FFFFC
3FFFFC
7F87FC
FF03FC
FF03FC
FF03FC
FF03FC
FF03F8
7F87F8
3FFFF0
0FFF00
ENDCHAR

STARTCHAR pi
ENCODING 240
SWIDTH 1131 0
DWIDTH 30 0
BBX 28 12 1 0
BITMAP
FFFFFFF0
FFFFFFF0
1FC07F00
1FC07F00
1FC0FE00
7F80FE00
7F80FC00
7F80FC00
7F81FC00
FE01FC00
FE01FF80
FE00FF80
ENDCHAR

STARTCHAR psi
ENCODING 241
SWIDTH 1131 0
DWIDTH 30 0
BBX 27 22 2 -5
BITMAP
000FC000
000FC000
000FC000
000FC000
000FC000
3F1F87E0
3F1F87E0
3F1F87E0
3F1F87E0
FC1F07E0
FC3F07E0
FC3F07C0
FC3F0FC0
FC3F0F00
3FFFFF00
1FFFFE00
007E0000
007E0000
007E0000
00FC0000
00FC0000
00FC0000
ENDCHAR

STARTCHAR rho
ENCODING 242
SWIDTH 1131 0
DWIDTH 30 0
BBX 29 17 0 -5
BITMAP
03FFFF00
0FFFFFC0
0FF01FF0
3FE00FF0
3FE00FF8
3FC00FF8
7FC00FF8
7FC00FF8
7FC00FF0
7FF01FF0
7FFFFFC0
7F1FFF00
7F000000
FF000000
FF000000
FF000000
FF000000
ENDCHAR

STARTCHAR sigma
ENCODING 243
SWIDTH 1131 0
DWIDTH 30 0
BBX 28 12 1 0
BITMAP
007FFFF0
07FFFFF0
1FF07F00
7FC03F80
7FC03FE0
FF803FE0
FF803FE0
FF807FE0
FF807F80
7FC1FF00
1FFFFE00
07FFF800
ENDCHAR

STARTCHAR tau
ENCODING 244
SWIDTH 1131 0
DWIDTH 30 0
BBX 26 12 2 0
BITMAP
FFFFFFC0
FFFFFFC0
007F0000
007F0000
00FE0000
00FE0000
03FC0000
03FC0000
03FC07C0
03FE0FC0
00FFFF00
003FFC00
ENDCHAR

STARTCHAR florin
ENCODING 246
SWIDTH 1131 0
DWIDTH 30 0
BBX 28 19 1 -4
BITMAP
00007FF0
0001FFF0
0007FC00
0007F800
000FE000
03FFFF80
03FFFF80
03FFFF80
001FC000
001FC000
003F8000
003F8000
003F8000
003F0000
007F0000
007E0000
01FE0000
FFF80000
FFE00000
ENDCHAR

STARTCHAR omega
ENCODING 247
SWIDTH 1131 0
DWIDTH 30 0
BBX 28 12 1 0
BITMAP
7F8007F0
7F8007F0
7F8007F0
7F8007F0
FE1F87F0
FE1F87F0
FE1F87F0
FE1F87F0
FE1F87E0
7F9F9FE0
7FFFFF80
0FF0FE00
ENDCHAR

STARTCHAR xi
ENCODING 248
SWIDTH 1131 0
DWIDTH 30 0
BBX 26 22 2 -5
BITMAP
0FFFFFC0
0FFFFFC0
007FC000
00FF0000
03FE0000
03FC0000
03FE0000
00FFF800
03FFF800
0FF00000
3FC00000
FF800000
FF800000
FF800000
FFC00000
3FFFFC00
0FFFFE00
0003FE00
0001FC00
0001FC00
0003F000
001F0000
ENDCHAR

STARTCHAR upsilon
ENCODING 249
SWIDTH 1131 0
DWIDTH 30 0
BBX 26 12 2 0
BITMAP
0FF07FC0
0FF07FC0
3FE07FC0
3FC07FC0
3FC0FFC0
FFC0FF00
FF80FF00
FF81FE00
FF81FE00
3FC3F800
3FFFF800
07FF8000
ENDCHAR

STARTCHAR zeta
ENCODING 250
SWIDTH 1131 0
DWIDTH 30 0
BBX 26 22 2 -5
BITMAP
0FFFFFC0
0FFFFFC0
0001FE00
0003F800
001FC000
007F0000
03FC0000
0FF00000
1FE00000
3FC00000
FFC00000
FF800000
FF800000
FF800000
3FC00000
3FFFFF00
07FFFFC0
0000FFC0
00007F00
00007F00
0000FC00
0003F000
ENDCHAR

STARTCHAR arrowleft
ENCODING 251
SWIDTH 1131 0
DWIDTH 30 0
BBX 29 13 1 1
BITMAP
007E0000
007E0000
03FE0000
1FE00000
1FE00000
FFFFFFF8
FFFFFFF8
FFFFFFF8
1FE00000
1FE00000
03FE0000
007E0000
007E0000
ENDCHAR

STARTCHAR arrowup
ENCODING 252
SWIDTH 1131 0
DWIDTH 30 0
BBX 18 21 7 -4
BITMAP
004000
01E000
07F800
07F800
1FFF00
7FFF80
FBF7C0
F3F1C0
F3F1C0
03F000
03F000
03F000
03F000
03F000
03F000
03F000
03F000
03F000
03F000
03F000
03F000
ENDCHAR

STARTCHAR arrowright
ENCODING 253
SWIDTH 1131 0
DWIDTH 30 0
BBX 29 13 0 1
BITMAP
0003F000
0003F000
0003FE00
00003FC0
00003FC0
FFFFFFF8
FFFFFFF8
FFFFFFF8
00003FC0
00003FC0
0003FE00
0003F000
0003F000
ENDCHAR

STARTCHAR arrowdown
ENCODING 254
SWIDTH 1131 0
DWIDTH 30 0
BBX 18 21 6 -4
BITMAP
03F000
03F000
03F000
03F000
03F000
03F000
03F000
03F000
03F000
03F000
03F000
03F000
F3F3C0
F3F3C0
FBF7C0
7FFF80
3FFF00
07F800
07F800
01E000
00C000
ENDCHAR
ENDFONT
